<svg width="64" height="64" viewBox="0 0 64 64" fill="none" xmlns="http://www.w3.org/2000/svg">
<circle cx="32" cy="32" r="32" fill="#00A980"/>
<path d="M48.018 23.1325C45.6119 21.0871 43.2094 19.0454 40.8033 17C39.3604 19.6442 37.9175 22.292 36.4745 24.9362C37.196 25.5386 37.9175 26.1374 38.6389 26.7398C39.2414 25.6576 39.8402 24.5754 40.4426 23.4932C40.7745 24.8784 41.128 27.3639 40.0819 29.9864C39.869 30.5239 39.6201 31.0037 39.3604 31.4294C39.2522 31.2598 39.1043 31.0362 38.9203 30.7801C38.6967 30.4698 38.5163 30.2498 38.4838 30.2101C37.802 29.3696 35.028 24.8352 32.9538 23.0171C30.9769 21.2819 26.9295 19.6298 23.9498 21.4911C20.9774 23.3489 19.8194 27.1439 21.3561 30.2714C21.8143 31.2021 22.4744 32.0426 23.1093 32.8723C26.475 37.2769 32.2359 38.8281 37.3583 36.7358C37.5279 36.6673 37.701 36.6095 37.8814 36.541C38.4586 39.5134 36.7415 42.6843 33.9241 43.918C30.9661 45.2131 27.6401 44.3509 25.6381 41.7464C22.9975 38.3158 20.7826 35.4119 18.1492 31.9777L17.756 31.4655L15 33.5758C15.0902 33.7092 15.1587 33.8174 15.2345 33.9185C17.9472 37.4573 20.2451 40.4622 22.965 43.9938C23.268 44.387 23.6071 44.7657 23.9679 45.1121C26.0601 47.0997 28.7765 48.0845 31.4964 47.9943C32.4379 47.9619 34.5157 47.7671 36.4673 46.537C39.9159 44.3653 41.6655 39.7948 41.1064 34.8888C42.0984 33.3954 42.6503 32.0318 42.9677 31.065C43.3718 29.8313 43.5197 28.8573 43.563 28.5543C43.7036 27.5551 43.7 26.7976 43.6892 26.0148C43.682 25.25 43.6351 24.2508 43.4764 23.0856C44.27 23.8215 45.0636 24.5574 45.8536 25.2933L48.018 23.1289V23.1325ZM36.4348 33.316C35.1073 33.9653 33.7618 34.2287 32.3549 34.1529C29.6855 34.0086 27.5319 32.8507 25.8798 30.762C25.4397 30.2065 24.9887 29.6474 24.6352 29.0377C23.7514 27.4974 24.1771 25.6216 25.5876 24.5971C26.9728 23.5906 28.9712 23.6988 30.0643 25.0516C32.2323 27.7355 34.2849 30.5167 36.4312 33.316H36.4348Z" fill="white"/>
</svg>
