<svg width="24" height="24" viewBox="0 0 24 24" fill="none" xmlns="http://www.w3.org/2000/svg">
<path d="M12 13C14.2091 13 16 11.2091 16 9C16 6.79086 14.2091 5 12 5C9.79086 5 8 6.79086 8 9C8 11.2091 9.79086 13 12 13Z" fill="white"/>
<path d="M17 12C18.6569 12 20 10.6569 20 9C20 7.34315 18.6569 6 17 6C15.3431 6 14 7.34315 14 9C14 10.6569 15.3431 12 17 12Z" fill="white"/>
<path d="M7 12C8.65685 12 10 10.6569 10 9C10 7.34315 8.65685 6 7 6C5.34315 6 4 7.34315 4 9C4 10.6569 5.34315 12 7 12Z" fill="white"/>
<path fill-rule="evenodd" clip-rule="evenodd" d="M17.5691 18.0001H19.8951C20.4871 18.0001 20.9401 17.4901 20.7971 16.9161C20.4281 15.4461 19.4481 13.0001 17.0001 13.0001C16.1141 13.0001 15.4201 13.3201 14.8781 13.8001C16.3861 14.7771 17.1661 16.4901 17.5691 18.0001ZM9.1221 13.8001C8.54119 13.275 7.78308 12.9891 7.0001 13.0001C4.5521 13.0001 3.5721 15.4461 3.2031 16.9161C3.0601 17.4901 3.5131 18.0001 4.1051 18.0001H6.4321C6.8351 16.4901 7.6141 14.7771 9.1221 13.8001Z" fill="white"/>
<path d="M12.0001 14C15.7091 14 16.6661 17.301 16.9141 19.006C16.9941 19.553 16.5521 20 16.0001 20H8.00009C7.44809 20 7.00709 19.553 7.08609 19.006C7.33409 17.301 8.29109 14 12.0001 14Z" fill="white"/>
</svg>
