<svg width="37" height="35" viewBox="0 0 37 35" fill="none" xmlns="http://www.w3.org/2000/svg">
<path d="M36.5244 6.78374C33.8627 4.52116 31.2051 2.26258 28.5435 0C26.9473 2.92499 25.3512 5.85396 23.755 8.77895C24.5531 9.44535 25.3512 10.1078 26.1493 10.7742C26.8157 9.57704 27.4781 8.37991 28.1445 7.18278C28.5116 8.71511 28.9026 11.4645 27.7454 14.3656C27.51 14.9601 27.2346 15.4909 26.9473 15.9617C26.8276 15.7742 26.664 15.5268 26.4605 15.2435C26.2131 14.9003 26.0136 14.6569 25.9777 14.613C25.2235 13.6832 22.1548 8.66722 19.8603 6.65604C17.6736 4.73664 13.1963 2.90903 9.90024 4.96809C6.61213 7.02316 5.33121 11.2211 7.03113 14.6808C7.53791 15.7103 8.26816 16.6401 8.97047 17.5579C12.6935 22.4302 19.0662 24.1461 24.7327 21.8317C24.9202 21.7558 25.1117 21.692 25.3113 21.6162C25.9497 24.9043 24.0503 28.4119 20.9338 29.7766C17.6616 31.2092 13.9824 30.2555 11.7678 27.3744C8.84677 23.5795 6.39665 20.3672 3.48364 16.5683L3.04868 16.0016L0 18.336C0.0997606 18.4837 0.175579 18.6034 0.259378 18.7151C3.26018 22.6297 5.80208 25.9538 8.81086 29.8604C9.14605 30.2954 9.52115 30.7144 9.9202 31.0974C12.2346 33.2962 15.2394 34.3856 18.2482 34.2858C19.2897 34.2499 21.5882 34.0344 23.747 32.6737C27.5619 30.2714 29.4972 25.2155 28.8787 19.7886C29.9761 18.1365 30.5866 16.6281 30.9378 15.5587C31.3847 14.194 31.5483 13.1166 31.5962 12.7814C31.7518 11.676 31.7478 10.838 31.7358 9.97209C31.7279 9.12612 31.676 8.02077 31.5004 6.73186C32.3783 7.54591 33.2562 8.35996 34.1301 9.174L36.5244 6.77975V6.78374ZM23.7111 18.0487C22.2426 18.767 20.7542 19.0583 19.1979 18.9745C16.245 18.8149 13.8627 17.534 12.0351 15.2235C11.5483 14.609 11.0495 13.9905 10.6584 13.3161C9.68077 11.6122 10.1516 9.53713 11.7119 8.40385C13.2442 7.29052 15.4549 7.41023 16.664 8.90665C19.0623 11.8755 21.3328 14.9522 23.7071 18.0487H23.7111Z" fill="white"/>
</svg>
