<svg width="510" height="104" viewBox="0 0 510 104" fill="none" xmlns="http://www.w3.org/2000/svg">
<path d="M90 17.2166C83.4415 11.6413 76.8928 6.07596 70.3343 0.500732C66.4012 7.70821 62.468 14.9255 58.5349 22.133C60.5015 23.7751 62.468 25.4073 64.4346 27.0494C66.0767 24.0996 67.7089 21.1497 69.351 18.1999C70.2557 21.9757 71.2193 28.7505 68.3677 35.899C67.7876 37.3641 67.1091 38.6718 66.4012 39.8321C66.1062 39.37 65.703 38.7603 65.2016 38.0622C64.5919 37.2166 64.1003 36.6168 64.0118 36.5086C62.1534 34.2176 54.5919 21.8577 48.9381 16.9019C43.5497 12.1723 32.5172 7.66888 24.3953 12.7426C16.293 17.8065 13.1367 28.1507 17.3255 36.6758C18.5742 39.2126 20.3736 41.5037 22.1042 43.7652C31.2783 55.7712 46.9813 59.9993 60.944 54.2962C61.4061 54.1094 61.8781 53.9521 62.3697 53.7653C63.943 61.8675 59.2625 70.5106 51.5831 73.8734C43.5202 77.4034 34.4543 75.0534 28.9971 67.954C21.7994 58.603 15.762 50.6876 8.58407 41.3267L7.51229 39.9304L0 45.6827C0.245821 46.0465 0.432645 46.3415 0.639135 46.6168C8.03343 56.2628 14.297 64.4536 21.7109 74.0799C22.5369 75.1517 23.4612 76.1841 24.4444 77.1281C30.1475 82.546 37.5516 85.2304 44.9656 84.9845C47.532 84.896 53.1957 84.3651 58.5152 81.0121C67.9154 75.0927 72.6844 62.6345 71.1603 49.2618C73.8643 45.191 75.3687 41.4742 76.234 38.839C77.3353 35.4762 77.7384 32.8213 77.8564 31.9953C78.2399 29.2716 78.2301 27.2067 78.2006 25.073C78.1809 22.9884 78.0531 20.2648 77.6205 17.0887C79.7837 19.0946 81.9469 21.1005 84.1003 23.1064L90 17.2067V17.2166ZM58.4267 44.9747C54.8083 46.7446 51.1406 47.4624 47.3058 47.2559C40.0295 46.8626 34.1593 43.7063 29.6559 38.013C28.4562 36.4988 27.2271 34.9747 26.2635 33.3129C23.8545 29.1143 25.0147 24.0012 28.8594 21.2087C32.6352 18.4653 38.0826 18.7603 41.0619 22.4476C46.9715 29.7633 52.5664 37.3444 58.4169 44.9747H58.4267Z" fill="#00A980"/>
<path d="M172.407 77.7651H161.217L127.551 26.8237V77.7651H116.361V9.45061H127.551L161.217 60.2939V9.45061H172.407V77.7651ZM232.742 49.3989C232.742 51.4274 232.611 53.2596 232.349 54.8955H191.027C191.354 59.2142 192.957 62.6823 195.836 65.2997C198.715 67.9171 202.249 69.2258 206.437 69.2258C212.457 69.2258 216.71 66.7066 219.197 61.668H231.27C229.634 66.6411 226.656 70.7308 222.338 73.9372C218.084 77.0781 212.784 78.6485 206.437 78.6485C201.267 78.6485 196.622 77.5034 192.499 75.2132C188.442 72.8575 185.236 69.5857 182.88 65.3979C180.59 61.1446 179.445 56.2369 179.445 50.6749C179.445 45.1129 180.557 40.238 182.782 36.0501C185.072 31.7968 188.246 28.525 192.303 26.2348C196.425 23.9445 201.137 22.7994 206.437 22.7994C211.541 22.7994 216.089 23.9118 220.08 26.1366C224.072 28.3614 227.18 31.5023 229.405 35.5593C231.629 39.5509 232.742 44.1641 232.742 49.3989ZM221.062 45.8654C220.996 41.743 219.524 38.4385 216.645 35.9519C213.766 33.4654 210.199 32.2221 205.946 32.2221C202.085 32.2221 198.781 33.4654 196.033 35.9519C193.284 38.373 191.648 41.6775 191.125 45.8654H221.062ZM263.286 78.6485C258.182 78.6485 253.569 77.5034 249.446 75.2132C245.324 72.8575 242.085 69.5857 239.729 65.3979C237.373 61.1446 236.196 56.2369 236.196 50.6749C236.196 45.1783 237.406 40.3034 239.827 36.0501C242.248 31.7968 245.553 28.525 249.741 26.2348C253.929 23.9445 258.607 22.7994 263.777 22.7994C268.946 22.7994 273.625 23.9445 277.813 26.2348C282 28.525 285.305 31.7968 287.726 36.0501C290.147 40.3034 291.358 45.1783 291.358 50.6749C291.358 56.1715 290.114 61.0464 287.628 65.2997C285.141 69.553 281.739 72.8575 277.42 75.2132C273.167 77.5034 268.455 78.6485 263.286 78.6485ZM263.286 68.9314C266.165 68.9314 268.848 68.2443 271.334 66.8701C273.886 65.496 275.948 63.4348 277.518 60.6865C279.088 57.9382 279.874 54.601 279.874 50.6749C279.874 46.7488 279.121 43.4443 277.616 40.7614C276.111 38.0132 274.115 35.9519 271.629 34.5778C269.142 33.2037 266.459 32.5166 263.58 32.5166C260.701 32.5166 258.018 33.2037 255.532 34.5778C253.111 35.9519 251.18 38.0132 249.741 40.7614C248.301 43.4443 247.581 46.7488 247.581 50.6749C247.581 56.4986 249.054 61.0137 251.998 64.22C255.008 67.3609 258.771 68.9314 263.286 68.9314ZM309.682 31.5351C311.318 28.7868 313.478 26.6601 316.16 25.1551C318.909 23.5847 322.148 22.7994 325.878 22.7994V34.3815H323.031C318.647 34.3815 315.31 35.4939 313.02 37.7187C310.795 39.9435 309.682 43.8042 309.682 49.3008V77.7651H298.493V23.6828H309.682V31.5351ZM388.83 23.6828L355.654 103.187H344.072L355.065 76.8818L333.766 23.6828H346.232L361.445 64.9071L377.248 23.6828H388.83ZM389.618 50.4786C389.618 45.0475 390.731 40.238 392.955 36.0501C395.246 31.8622 398.321 28.6232 402.182 26.3329C406.108 23.9773 410.459 22.7994 415.236 22.7994C418.77 22.7994 422.238 23.5847 425.64 25.1551C429.109 26.6601 431.857 28.6886 433.885 31.2406V5.13188H445.173V77.7651H433.885V69.6184C432.053 72.2358 429.501 74.3952 426.229 76.0965C423.023 77.7979 419.326 78.6485 415.138 78.6485C410.427 78.6485 406.108 77.4707 402.182 75.115C398.321 72.6939 395.246 69.3567 392.955 65.1034C390.731 60.7847 389.618 55.9097 389.618 50.4786ZM433.885 50.6749C433.885 46.9451 433.1 43.706 431.53 40.9577C430.025 38.2095 428.029 36.1155 425.542 34.6759C423.056 33.2364 420.373 32.5166 417.494 32.5166C414.615 32.5166 411.932 33.2364 409.445 34.6759C406.959 36.0501 404.93 38.1113 403.36 40.8596C401.855 43.5424 401.102 46.7488 401.102 50.4786C401.102 54.2084 401.855 57.4802 403.36 60.2939C404.93 63.1076 406.959 65.267 409.445 66.772C411.997 68.2116 414.68 68.9314 417.494 68.9314C420.373 68.9314 423.056 68.2116 425.542 66.772C428.029 65.3324 430.025 63.2385 431.53 60.4902C433.1 57.6765 433.885 54.4047 433.885 50.6749ZM505.511 49.3989C505.511 51.4274 505.38 53.2596 505.118 54.8955H463.796C464.123 59.2142 465.726 62.6823 468.605 65.2997C471.485 67.9171 475.018 69.2258 479.206 69.2258C485.226 69.2258 489.479 66.7066 491.966 61.668H504.039C502.403 66.6411 499.425 70.7308 495.107 73.9372C490.853 77.0781 485.553 78.6485 479.206 78.6485C474.037 78.6485 469.391 77.5034 465.268 75.2132C461.211 72.8575 458.005 69.5857 455.649 65.3979C453.359 61.1446 452.214 56.2369 452.214 50.6749C452.214 45.1129 453.326 40.238 455.551 36.0501C457.841 31.7968 461.015 28.525 465.072 26.2348C469.194 23.9445 473.906 22.7994 479.206 22.7994C484.31 22.7994 488.858 23.9118 492.849 26.1366C496.841 28.3614 499.949 31.5023 502.174 35.5593C504.399 39.5509 505.511 44.1641 505.511 49.3989ZM493.831 45.8654C493.765 41.743 492.293 38.4385 489.414 35.9519C486.535 33.4654 482.968 32.2221 478.715 32.2221C474.854 32.2221 471.55 33.4654 468.802 35.9519C466.053 38.373 464.418 41.6775 463.894 45.8654H493.831Z" fill="#00A980"/>
</svg>
