<svg width="566" height="121" viewBox="0 0 566 121" fill="none" xmlns="http://www.w3.org/2000/svg">
<path d="M127.466 23.6745C118.177 15.7783 108.902 7.89613 99.6138 0C94.0433 10.2079 88.4728 20.4297 82.9024 30.6375C85.6876 32.9632 88.4728 35.2749 91.2581 37.6006C93.5837 33.4228 95.8955 29.2449 98.2211 25.0671C99.5023 30.4147 100.867 40.0098 96.8285 50.1342C96.0069 52.2092 95.046 54.0613 94.0433 55.7046C93.6255 55.0501 93.0545 54.1867 92.3443 53.1979C91.4809 52.0003 90.7846 51.1508 90.6592 50.9976C88.0272 47.7528 77.318 30.2476 69.3105 23.2288C61.6789 16.5303 46.0538 10.1522 34.5508 17.3381C23.0756 24.51 18.6053 39.1603 24.5379 51.2343C26.3065 54.8273 28.855 58.0721 31.306 61.2751C44.2991 78.2789 66.5391 84.2672 86.3143 76.19C86.9688 75.9254 87.6373 75.7026 88.3336 75.438C90.5618 86.9131 83.9329 99.1542 73.0566 103.917C61.6371 108.916 48.7972 105.588 41.0682 95.5334C30.8743 82.2896 22.3236 71.0791 12.1575 57.8214L10.6396 55.8439L0 63.9907C0.348154 64.5059 0.612751 64.9237 0.9052 65.3137C11.3777 78.9752 20.2486 90.5757 30.7489 104.209C31.9187 105.727 33.2278 107.19 34.6204 108.527C42.6976 116.2 53.184 120.002 63.6843 119.654C67.319 119.528 75.3405 118.776 82.8745 114.027C96.1879 105.644 102.942 87.9994 100.784 69.0598C104.613 63.2944 106.744 58.0303 107.969 54.2981C109.529 49.5353 110.1 45.7753 110.267 44.6055C110.81 40.7479 110.796 37.8234 110.755 34.8015C110.727 31.8491 110.546 27.9916 109.933 23.4934C112.997 26.3344 116.061 29.1753 119.11 32.0162L127.466 23.6605V23.6745ZM82.7492 62.988C77.6244 65.4947 72.4299 66.5113 66.9987 66.2189C56.6934 65.6618 48.3794 61.1915 42.0013 53.1283C40.3023 50.9837 38.5615 48.8251 37.1967 46.4716C33.7848 40.5251 35.4281 33.2835 40.8733 29.3285C46.2209 25.4431 53.936 25.8609 58.1556 31.0832C66.5252 41.4442 74.4492 52.1813 82.7353 62.988H82.7492Z" fill="white"/>
<path d="M228.407 94.7651H217.217L183.551 43.8237V94.7651H172.361V26.4506H183.551L217.217 77.2939V26.4506H228.407V94.7651ZM288.742 66.3989C288.742 68.4274 288.611 70.2596 288.349 71.8955H247.027C247.354 76.2142 248.957 79.6823 251.836 82.2997C254.715 84.9171 258.249 86.2258 262.437 86.2258C268.457 86.2258 272.71 83.7066 275.197 78.668H287.27C285.634 83.6411 282.656 87.7308 278.338 90.9372C274.084 94.0781 268.784 95.6485 262.437 95.6485C257.267 95.6485 252.622 94.5034 248.499 92.2132C244.442 89.8575 241.236 86.5857 238.88 82.3979C236.59 78.1446 235.445 73.2369 235.445 67.6749C235.445 62.1129 236.557 57.238 238.782 53.0501C241.072 48.7968 244.246 45.525 248.303 43.2348C252.425 40.9445 257.137 39.7994 262.437 39.7994C267.541 39.7994 272.089 40.9118 276.08 43.1366C280.072 45.3614 283.18 48.5023 285.405 52.5593C287.629 56.5509 288.742 61.1641 288.742 66.3989ZM277.062 62.8654C276.996 58.743 275.524 55.4385 272.645 52.9519C269.766 50.4654 266.199 49.2221 261.946 49.2221C258.085 49.2221 254.781 50.4654 252.033 52.9519C249.284 55.373 247.648 58.6775 247.125 62.8654H277.062ZM319.286 95.6485C314.182 95.6485 309.569 94.5034 305.446 92.2132C301.324 89.8575 298.085 86.5857 295.729 82.3979C293.373 78.1446 292.196 73.2369 292.196 67.6749C292.196 62.1783 293.406 57.3034 295.827 53.0501C298.248 48.7968 301.553 45.525 305.741 43.2348C309.929 40.9445 314.607 39.7994 319.777 39.7994C324.946 39.7994 329.625 40.9445 333.813 43.2348C338 45.525 341.305 48.7968 343.726 53.0501C346.147 57.3034 347.358 62.1783 347.358 67.6749C347.358 73.1715 346.114 78.0464 343.628 82.2997C341.141 86.553 337.739 89.8575 333.42 92.2132C329.167 94.5034 324.455 95.6485 319.286 95.6485ZM319.286 85.9314C322.165 85.9314 324.848 85.2443 327.334 83.8701C329.886 82.496 331.948 80.4348 333.518 77.6865C335.088 74.9382 335.874 71.601 335.874 67.6749C335.874 63.7488 335.121 60.4443 333.616 57.7614C332.111 55.0132 330.115 52.9519 327.629 51.5778C325.142 50.2037 322.459 49.5166 319.58 49.5166C316.701 49.5166 314.018 50.2037 311.532 51.5778C309.111 52.9519 307.18 55.0132 305.741 57.7614C304.301 60.4443 303.581 63.7488 303.581 67.6749C303.581 73.4986 305.054 78.0137 307.998 81.22C311.008 84.3609 314.771 85.9314 319.286 85.9314ZM365.682 48.5351C367.318 45.7868 369.478 43.6601 372.16 42.1551C374.909 40.5847 378.148 39.7994 381.878 39.7994V51.3815H379.031C374.647 51.3815 371.31 52.4939 369.02 54.7187C366.795 56.9435 365.682 60.8042 365.682 66.3008V94.7651H354.493V40.6828H365.682V48.5351ZM444.83 40.6828L411.654 120.187H400.072L411.065 93.8818L389.766 40.6828H402.232L417.445 81.9071L433.248 40.6828H444.83ZM445.618 67.4786C445.618 62.0475 446.731 57.238 448.955 53.0501C451.246 48.8622 454.321 45.6232 458.182 43.3329C462.108 40.9773 466.459 39.7994 471.236 39.7994C474.77 39.7994 478.238 40.5847 481.64 42.1551C485.109 43.6601 487.857 45.6886 489.885 48.2406V22.1319H501.173V94.7651H489.885V86.6184C488.053 89.2358 485.501 91.3952 482.229 93.0965C479.023 94.7979 475.326 95.6485 471.138 95.6485C466.427 95.6485 462.108 94.4707 458.182 92.115C454.321 89.6939 451.246 86.3567 448.955 82.1034C446.731 77.7847 445.618 72.9097 445.618 67.4786ZM489.885 67.6749C489.885 63.9451 489.1 60.706 487.53 57.9577C486.025 55.2095 484.029 53.1155 481.542 51.6759C479.056 50.2364 476.373 49.5166 473.494 49.5166C470.615 49.5166 467.932 50.2364 465.445 51.6759C462.959 53.0501 460.93 55.1113 459.36 57.8596C457.855 60.5424 457.102 63.7488 457.102 67.4786C457.102 71.2084 457.855 74.4802 459.36 77.2939C460.93 80.1076 462.959 82.267 465.445 83.772C467.997 85.2116 470.68 85.9314 473.494 85.9314C476.373 85.9314 479.056 85.2116 481.542 83.772C484.029 82.3324 486.025 80.2385 487.53 77.4902C489.1 74.6765 489.885 71.4047 489.885 67.6749ZM561.511 66.3989C561.511 68.4274 561.38 70.2596 561.118 71.8955H519.796C520.123 76.2142 521.726 79.6823 524.605 82.2997C527.485 84.9171 531.018 86.2258 535.206 86.2258C541.226 86.2258 545.479 83.7066 547.966 78.668H560.039C558.403 83.6411 555.425 87.7308 551.107 90.9372C546.853 94.0781 541.553 95.6485 535.206 95.6485C530.037 95.6485 525.391 94.5034 521.268 92.2132C517.211 89.8575 514.005 86.5857 511.649 82.3979C509.359 78.1446 508.214 73.2369 508.214 67.6749C508.214 62.1129 509.326 57.238 511.551 53.0501C513.841 48.7968 517.015 45.525 521.072 43.2348C525.194 40.9445 529.906 39.7994 535.206 39.7994C540.31 39.7994 544.858 40.9118 548.849 43.1366C552.841 45.3614 555.949 48.5023 558.174 52.5593C560.399 56.5509 561.511 61.1641 561.511 66.3989ZM549.831 62.8654C549.765 58.743 548.293 55.4385 545.414 52.9519C542.535 50.4654 538.968 49.2221 534.715 49.2221C530.854 49.2221 527.55 50.4654 524.802 52.9519C522.053 55.373 520.418 58.6775 519.894 62.8654H549.831Z" fill="white"/>
</svg>
